# xmcd
#
# Track frame offsets: 
#        150
#        31088
#        63835
#        96109
#        109022
#        127501
#        156949
#        175496
#        192886
#        209884
#        230073
#        247014
#        266278
#        286589
#        321894
#        338647
#
# Disc length: 4741 seconds
#
# Revision: 0
# Processed by: cddbd v1.5.2PL0 Copyright (c) Steve Scherf et al.
# Submitted via: ExactAudioCopy v1.0b3
#
DISCID=dc128310
DTITLE=Various Artist - DeeJay Parade Vol. 6 - CD 2
DYEAR=1900
DGENRE=
TTITLE0=Ian Pooley Feat. Esthero - Balmes (Original Album Version)
TTITLE1=Topazz Feat. William Wright - Party 4 Everybody (Blue Soda Rem
TTITLE1=ix)
TTITLE2=Delegation - One More Step To Take (Original Version)
TTITLE3=Jamie Lewis and Nick Morris - Downtown
TTITLE4=Groovemaster K and Special Babe - Get Happy!
TTITLE5=Mimmo M Feat. Regi - You'll Be Alright (Full Vocal Mix)
TTITLE6=Souvernance - Havin' A Good Time
TTITLE7=Groovemaster K and 88 Keys - Frisco Disco
TTITLE8=H.O.G. - Got To Dance Disco
TTITLE9=88 Keys and Daniel Garcia - Real Love
TTITLE10=DJ Pippi Pres. Natural Colors - Feel It
TTITLE11=Tatia-Nah - Se Quiere La Luna
TTITLE12=Da Nightshift - Dr. Love (Got You On My Mind)
TTITLE13=Klubbheads - Kickin' Hard 2001 (Central Seven Remix)
TTITLE14=Flying Steps - Breakin' It Down (Radio Edit)
TTITLE15=Nicky Davis - To Munich
EXTD=
EXTT0=
EXTT1=
EXTT2=
EXTT3=
EXTT4=
EXTT5=
EXTT6=
EXTT7=
EXTT8=
EXTT9=
EXTT10=
EXTT11=
EXTT12=
EXTT13=
EXTT14=
EXTT15=
PLAYORDER=
